{
  "accessors": [
    {
      "bufferView": 2,
      "componentType": 5126,
      "count": 65532,
      "max": [
        -0.009096026420593262,
        0.20968344807624817,
        0.5091429352760315
      ],
      "min": [
        -0.3317681550979614,
        -0.1679973602294922,
        0.4185106158256531
      ],
      "type": "VEC3"
    },
    {
      "bufferView": 2,
      "byteOffset": 786384,
      "componentType": 5126,
      "count": 65532,
      "max": [
        0.9997812509536743,
        0.9986719489097595,
        0.9999977946281433
      ],
      "min": [
        -0.9999159574508667,
        -0.9989562034606934,
        -0.9999994039535522
      ],
      "type": "VEC3"
    },
    {
      "bufferView": 1,
      "componentType": 5126,
      "count": 65532,
      "max": [
        0.9996505379676819,
        0.9841307401657104
      ],
      "min": [
        0.000244140625,
        0.0002678228775039315
      ],
      "type": "VEC2"
    },
    {
      "bufferView": 1,
      "byteOffset": 524256,
      "componentType": 5126,
      "count": 65532,
      "max": [
        0.9996505379676819,
        0.9841307401657104
      ],
      "min": [
        0.000244140625,
        0.0002678228775039315
      ],
      "type": "VEC2"
    },
    {
      "bufferView": 0,
      "componentType": 5125,
      "count": 299709,
      "type": "SCALAR"
    },
    {
      "bufferView": 2,
      "byteOffset": 1572768,
      "componentType": 5126,
      "count": 65532,
      "max": [
        -0.008949026465415955,
        0.20961260795593262,
        0.5090564489364624
      ],
      "min": [
        -0.3315599858760834,
        -0.16841968894004822,
        0.4714083671569824
      ],
      "type": "VEC3"
    },
    {
      "bufferView": 2,
      "byteOffset": 2359152,
      "componentType": 5126,
      "count": 65532,
      "max": [
        0.9998326301574707,
        0.9998750686645508,
        0.9999977946281433
      ],
      "min": [
        -0.9997549653053284,
        -0.9999464750289917,
        -1.0
      ],
      "type": "VEC3"
    },
    {
      "bufferView": 1,
      "byteOffset": 1048512,
      "componentType": 5126,
      "count": 65532,
      "max": [
        0.9997374415397644,
        0.9587401151657104
      ],
      "min": [
        0.000244140625,
        0.0002487493911758065
      ],
      "type": "VEC2"
    },
    {
      "bufferView": 1,
      "byteOffset": 1572768,
      "componentType": 5126,
      "count": 65532,
      "max": [
        0.9997374415397644,
        0.9587401151657104
      ],
      "min": [
        0.000244140625,
        0.0002487493911758065
      ],
      "type": "VEC2"
    },
    {
      "bufferView": 0,
      "byteOffset": 1198836,
      "componentType": 5125,
      "count": 262551,
      "type": "SCALAR"
    },
    {
      "bufferView": 2,
      "byteOffset": 3145536,
      "componentType": 5126,
      "count": 65532,
      "max": [
        -0.02599377930164337,
        0.20968344807624817,
        0.5091429352760315
      ],
      "min": [
        -0.33112314343452454,
        -0.13258731365203857,
        0.36579227447509766
      ],
      "type": "VEC3"
    },
    {
      "bufferView": 2,
      "byteOffset": 3931920,
      "componentType": 5126,
      "count": 65532,
      "max": [
        0.9954924583435059,
        0.9999989867210388,
        0.9962475895881653
      ],
      "min": [
        -0.9992402195930481,
        -0.9999493956565857,
        -1.0
      ],
      "type": "VEC3"
    },
    {
      "bufferView": 1,
      "byteOffset": 2097024,
      "componentType": 5126,
      "count": 65532,
      "max": [
        0.9997069835662842,
        0.9157713651657104
      ],
      "min": [
        0.000244140625,
        0.00028743280563503504
      ],
      "type": "VEC2"
    },
    {
      "bufferView": 1,
      "byteOffset": 2621280,
      "componentType": 5126,
      "count": 65532,
      "max": [
        0.9997069835662842,
        0.9157713651657104
      ],
      "min": [
        0.000244140625,
        0.00028743280563503504
      ],
      "type": "VEC2"
    },
    {
      "bufferView": 0,
      "byteOffset": 2249040,
      "componentType": 5125,
      "count": 309489,
      "type": "SCALAR"
    },
    {
      "bufferView": 2,
      "byteOffset": 4718304,
      "componentType": 5126,
      "count": 65532,
      "max": [
        -0.1443290412425995,
        0.09401792287826538,
        0.49422919750213623
      ],
      "min": [
        -0.2516123354434967,
        -0.048100873827934265,
        0.3598308563232422
      ],
      "type": "VEC3"
    },
    {
      "bufferView": 2,
      "byteOffset": 5504688,
      "componentType": 5126,
      "count": 65532,
      "max": [
        0.9993804693222046,
        0.9999845027923584,
        0.9999843239784241
      ],
      "min": [
        -0.9999942779541016,
        -0.9999556541442871,
        -1.0
      ],
      "type": "VEC3"
    },
    {
      "bufferView": 1,
      "byteOffset": 3145536,
      "componentType": 5126,
      "count": 65532,
      "max": [
        0.9997298717498779,
        0.9206541776657104
      ],
      "min": [
        0.000244140625,
        0.0002489282051101327
      ],
      "type": "VEC2"
    },
    {
      "bufferView": 1,
      "byteOffset": 3669792,
      "componentType": 5126,
      "count": 65532,
      "max": [
        0.9997298717498779,
        0.9206541776657104
      ],
      "min": [
        0.000244140625,
        0.0002489282051101327
      ],
      "type": "VEC2"
    },
    {
      "bufferView": 0,
      "byteOffset": 3486996,
      "componentType": 5125,
      "count": 271194,
      "type": "SCALAR"
    },
    {
      "bufferView": 2,
      "byteOffset": 6291072,
      "componentType": 5126,
      "count": 65532,
      "max": [
        -0.14163701236248016,
        0.10170617699623108,
        0.48135489225387573
      ],
      "min": [
        -0.24561813473701477,
        -0.014715131372213364,
        0.36860790848731995
      ],
      "type": "VEC3"
    },
    {
      "bufferView": 2,
      "byteOffset": 7077456,
      "componentType": 5126,
      "count": 65532,
      "max": [
        0.9999792575836182,
        0.9999780654907227,
        0.9968553185462952
      ],
      "min": [
        -0.9999945759773254,
        -0.9999977350234985,
        -0.9999998211860657
      ],
      "type": "VEC3"
    },
    {
      "bufferView": 1,
      "byteOffset": 4194048,
      "componentType": 5126,
      "count": 65532,
      "max": [
        0.9997509717941284,
        0.9479979276657104
      ],
      "min": [
        0.000244140625,
        0.0002463652053847909
      ],
      "type": "VEC2"
    },
    {
      "bufferView": 1,
      "byteOffset": 4718304,
      "componentType": 5126,
      "count": 65532,
      "max": [
        0.9997509717941284,
        0.9479979276657104
      ],
      "min": [
        0.000244140625,
        0.0002463652053847909
      ],
      "type": "VEC2"
    },
    {
      "bufferView": 0,
      "byteOffset": 4571772,
      "componentType": 5125,
      "count": 245424,
      "type": "SCALAR"
    },
    {
      "bufferView": 2,
      "byteOffset": 7863840,
      "componentType": 5126,
      "count": 65532,
      "max": [
        -0.07998985797166824,
        0.05167321488261223,
        0.47738224267959595
      ],
      "min": [
        -0.17929451167583466,
        -0.04057639092206955,
        0.3599207103252411
      ],
      "type": "VEC3"
    },
    {
      "bufferView": 2,
      "byteOffset": 8650224,
      "componentType": 5126,
      "count": 65532,
      "max": [
        0.9999792575836182,
        0.9999780654907227,
        0.9990187883377075
      ],
      "min": [
        -0.9999595880508423,
        -0.999983549118042,
        -0.9999952912330627
      ],
      "type": "VEC3"
    },
    {
      "bufferView": 1,
      "byteOffset": 5242560,
      "componentType": 5126,
      "count": 65532,
      "max": [
        0.9997397661209106,
        0.9860838651657104
      ],
      "min": [
        0.000244140625,
        0.00024404062423855066
      ],
      "type": "VEC2"
    },
    {
      "bufferView": 1,
      "byteOffset": 5766816,
      "componentType": 5126,
      "count": 65532,
      "max": [
        0.9997397661209106,
        0.9860838651657104
      ],
      "min": [
        0.000244140625,
        0.00024404062423855066
      ],
      "type": "VEC2"
    },
    {
      "bufferView": 0,
      "byteOffset": 5553468,
      "componentType": 5125,
      "count": 246303,
      "type": "SCALAR"
    },
    {
      "bufferView": 2,
      "byteOffset": 9436608,
      "componentType": 5126,
      "count": 65532,
      "max": [
        -0.029446832835674286,
        0.20946693420410156,
        0.4959616959095001
      ],
      "min": [
        -0.19544082880020142,
        -0.004268273711204529,
        0.3599207103252411
      ],
      "type": "VEC3"
    },
    {
      "bufferView": 2,
      "byteOffset": 10222992,
      "componentType": 5126,
      "count": 65532,
      "max": [
        0.9999668002128601,
        0.9998421669006348,
        0.9977946281433105
      ],
      "min": [
        -0.9991618990898132,
        -0.9993155598640442,
        -0.9999998211860657
      ],
      "type": "VEC3"
    },
    {
      "bufferView": 1,
      "byteOffset": 6291072,
      "componentType": 5126,
      "count": 65532,
      "max": [
        0.999711275100708,
        0.9040526151657104
      ],
      "min": [
        0.000244140625,
        0.0002487493911758065
      ],
      "type": "VEC2"
    },
    {
      "bufferView": 1,
      "byteOffset": 6815328,
      "componentType": 5126,
      "count": 65532,
      "max": [
        0.999711275100708,
        0.9040526151657104
      ],
      "min": [
        0.000244140625,
        0.0002487493911758065
      ],
      "type": "VEC2"
    },
    {
      "bufferView": 0,
      "byteOffset": 6538680,
      "componentType": 5125,
      "count": 281148,
      "type": "SCALAR"
    },
    {
      "bufferView": 2,
      "byteOffset": 11009376,
      "componentType": 5126,
      "count": 65532,
      "max": [
        -0.029456637799739838,
        0.20841538906097412,
        0.49731945991516113
      ],
      "min": [
        -0.2983456254005432,
        0.04746366664767265,
        0.453341543674469
      ],
      "type": "VEC3"
    },
    {
      "bufferView": 2,
      "byteOffset": 11795760,
      "componentType": 5126,
      "count": 65532,
      "max": [
        0.9969012141227722,
        0.9999744892120361,
        0.9932733774185181
      ],
      "min": [
        -0.9999293088912964,
        -0.9999539852142334,
        -1.0
      ],
      "type": "VEC3"
    },
    {
      "bufferView": 1,
      "byteOffset": 7339584,
      "componentType": 5126,
      "count": 65532,
      "max": [
        0.999659538269043,
        0.8993174433708191
      ],
      "min": [
        0.000244140625,
        0.00026055111084133387
      ],
      "type": "VEC2"
    },
    {
      "bufferView": 1,
      "byteOffset": 7863840,
      "componentType": 5126,
      "count": 65532,
      "max": [
        0.999659538269043,
        0.8993174433708191
      ],
      "min": [
        0.000244140625,
        0.00026055111084133387
      ],
      "type": "VEC2"
    },
    {
      "bufferView": 0,
      "byteOffset": 7663272,
      "componentType": 5125,
      "count": 254301,
      "type": "SCALAR"
    },
    {
      "bufferView": 2,
      "byteOffset": 12582144,
      "componentType": 5126,
      "count": 65532,
      "max": [
        -0.021901816129684448,
        0.20964324474334717,
        0.509041965007782
      ],
      "min": [
        -0.30353617668151855,
        -0.11695972830057144,
        0.4324546754360199
      ],
      "type": "VEC3"
    },
    {
      "bufferView": 2,
      "byteOffset": 13368528,
      "componentType": 5126,
      "count": 65532,
      "max": [
        0.9993804693222046,
        0.9998817443847656,
        0.9999977946281433
      ],
      "min": [
        -0.999936580657959,
        -0.9988182783126831,
        -0.9999998211860657
      ],
      "type": "VEC3"
    },
    {
      "bufferView": 1,
      "byteOffset": 8388096,
      "componentType": 5126,
      "count": 65532,
      "max": [
        0.999742329120636,
        0.9234786033630371
      ],
      "min": [
        0.000244140625,
        0.0002691937843337655
      ],
      "type": "VEC2"
    },
    {
      "bufferView": 1,
      "byteOffset": 8912352,
      "componentType": 5126,
      "count": 65532,
      "max": [
        0.999742329120636,
        0.9234786033630371
      ],
      "min": [
        0.000244140625,
        0.0002691937843337655
      ],
      "type": "VEC2"
    },
    {
      "bufferView": 0,
      "byteOffset": 8680476,
      "componentType": 5125,
      "count": 263160,
      "type": "SCALAR"
    },
    {
      "bufferView": 2,
      "byteOffset": 14154912,
      "componentType": 5126,
      "count": 65532,
      "max": [
        -0.00949975848197937,
        0.05649827793240547,
        0.5089882016181946
      ],
      "min": [
        -0.300348162651062,
        -0.16836115717887878,
        0.47473591566085815
      ],
      "type": "VEC3"
    },
    {
      "bufferView": 2,
      "byteOffset": 14941296,
      "componentType": 5126,
      "count": 65532,
      "max": [
        0.9914979934692383,
        0.9977284669876099,
        0.9999977946281433
      ],
      "min": [
        -0.9925910830497742,
        -0.9877757430076599,
        -0.9999998807907104
      ],
      "type": "VEC3"
    },
    {
      "bufferView": 1,
      "byteOffset": 9436608,
      "componentType": 5126,
      "count": 65532,
      "max": [
        0.9997407793998718,
        0.9157713651657104
      ],
      "min": [
        0.000244140625,
        0.00024737848434597254
      ],
      "type": "VEC2"
    },
    {
      "bufferView": 1,
      "byteOffset": 9960864,
      "componentType": 5126,
      "count": 65532,
      "max": [
        0.9997407793998718,
        0.9157713651657104
      ],
      "min": [
        0.000244140625,
        0.00024737848434597254
      ],
      "type": "VEC2"
    },
    {
      "bufferView": 0,
      "byteOffset": 9733116,
      "componentType": 5125,
      "count": 302799,
      "type": "SCALAR"
    },
    {
      "bufferView": 2,
      "byteOffset": 15727680,
      "componentType": 5126,
      "count": 65532,
      "max": [
        -0.029990732669830322,
        0.05366314947605133,
        0.49629321694374084
      ],
      "min": [
        -0.3007133901119232,
        -0.04792457073926926,
        0.4281422793865204
      ],
      "type": "VEC3"
    },
    {
      "bufferView": 2,
      "byteOffset": 16514064,
      "componentType": 5126,
      "count": 65532,
      "max": [
        0.9999229907989502,
        0.9999585747718811,
        0.8262899518013
      ],
      "min": [
        -0.9990206360816956,
        -0.9934719204902649,
        -0.9999986886978149
      ],
      "type": "VEC3"
    },
    {
      "bufferView": 1,
      "byteOffset": 10485120,
      "componentType": 5126,
      "count": 65532,
      "max": [
        0.9997418522834778,
        0.9703600406646729
      ],
      "min": [
        0.000244140625,
        0.0002525640884414315
      ],
      "type": "VEC2"
    },
    {
      "bufferView": 1,
      "byteOffset": 11009376,
      "componentType": 5126,
      "count": 65532,
      "max": [
        0.9997418522834778,
        0.9703600406646729
      ],
      "min": [
        0.000244140625,
        0.0002525640884414315
      ],
      "type": "VEC2"
    },
    {
      "bufferView": 0,
      "byteOffset": 10944312,
      "componentType": 5125,
      "count": 246450,
      "type": "SCALAR"
    },
    {
      "bufferView": 2,
      "byteOffset": 17300448,
      "componentType": 5126,
      "count": 7903,
      "max": [
        -0.09646089375019073,
        0.053182393312454224,
        0.47628647089004517
      ],
      "min": [
        -0.17853011190891266,
        0.006175335496664047,
        0.4281734228134155
      ],
      "type": "VEC3"
    },
    {
      "bufferView": 2,
      "byteOffset": 17395284,
      "componentType": 5126,
      "count": 7903,
      "max": [
        0.9999668002128601,
        0.9991974830627441,
        0.7696977853775024
      ],
      "min": [
        -0.7931774854660034,
        -0.9241045117378235,
        -0.9999719858169556
      ],
      "type": "VEC3"
    },
    {
      "bufferView": 1,
      "byteOffset": 11533632,
      "componentType": 5126,
      "count": 7903,
      "max": [
        0.999453067779541,
        0.879723072052002
      ],
      "min": [
        0.000244140625,
        0.00024463667068630457
      ],
      "type": "VEC2"
    },
    {
      "bufferView": 1,
      "byteOffset": 11596856,
      "componentType": 5126,
      "count": 7903,
      "max": [
        0.999453067779541,
        0.879723072052002
      ],
      "min": [
        0.000244140625,
        0.00024463667068630457
      ],
      "type": "VEC2"
    },
    {
      "bufferView": 0,
      "byteOffset": 11930112,
      "componentType": 5125,
      "count": 17646,
      "type": "SCALAR"
    }
  ],
  "asset": {
    "extras": {
      "author": "maulikjani9 (https://sketchfab.com/maulikjani9)",
      "license": "CC-BY-4.0 (http://creativecommons.org/licenses/by/4.0/)",
      "source": "https://sketchfab.com/3d-models/adiyogi-scan-test-f68aa4e71b88475a85ed6b0f46099940",
      "title": "Adiyogi Scan test"
    },
    "generator": "Sketchfab-14.87.0",
    "version": "2.0"
  },
  "bufferViews": [
    {
      "buffer": 0,
      "byteLength": 12000696,
      "name": "floatBufferViews",
      "target": 34963
    },
    {
      "buffer": 0,
      "byteLength": 11660080,
      "byteOffset": 12000696,
      "byteStride": 8,
      "name": "floatBufferViews",
      "target": 34962
    },
    {
      "buffer": 0,
      "byteLength": 17490120,
      "byteOffset": 23660776,
      "byteStride": 12,
      "name": "floatBufferViews",
      "target": 34962
    }
  ],
  "buffers": [
    {
      "byteLength": 41150896,
      "uri": "scene.bin"
    }
  ],
  "extensionsUsed": [
    "KHR_materials_unlit"
  ],
  "images": [
    {
      "uri": "textures/tex_u1_v1_baseColor.jpeg"
    }
  ],
  "materials": [
    {
      "doubleSided": true,
      "extensions": {
        "KHR_materials_unlit": {}
      },
      "name": "tex_u1_v1",
      "pbrMetallicRoughness": {
        "baseColorTexture": {
          "index": 0
        },
        "metallicFactor": 0.0
      }
    }
  ],
  "meshes": [
    {
      "name": "model_tex_u1_v1_0",
      "primitives": [
        {
          "attributes": {
            "NORMAL": 1,
            "POSITION": 0,
            "TEXCOORD_0": 2,
            "TEXCOORD_1": 3
          },
          "indices": 4,
          "material": 0,
          "mode": 4
        }
      ]
    },
    {
      "name": "model_tex_u1_v1_0",
      "primitives": [
        {
          "attributes": {
            "NORMAL": 6,
            "POSITION": 5,
            "TEXCOORD_0": 7,
            "TEXCOORD_1": 8
          },
          "indices": 9,
          "material": 0,
          "mode": 4
        }
      ]
    },
    {
      "name": "model_tex_u1_v1_0",
      "primitives": [
        {
          "attributes": {
            "NORMAL": 11,
            "POSITION": 10,
            "TEXCOORD_0": 12,
            "TEXCOORD_1": 13
          },
          "indices": 14,
          "material": 0,
          "mode": 4
        }
      ]
    },
    {
      "name": "model_tex_u1_v1_0",
      "primitives": [
        {
          "attributes": {
            "NORMAL": 16,
            "POSITION": 15,
            "TEXCOORD_0": 17,
            "TEXCOORD_1": 18
          },
          "indices": 19,
          "material": 0,
          "mode": 4
        }
      ]
    },
    {
      "name": "model_tex_u1_v1_0",
      "primitives": [
        {
          "attributes": {
            "NORMAL": 21,
            "POSITION": 20,
            "TEXCOORD_0": 22,
            "TEXCOORD_1": 23
          },
          "indices": 24,
          "material": 0,
          "mode": 4
        }
      ]
    },
    {
      "name": "model_tex_u1_v1_0",
      "primitives": [
        {
          "attributes": {
            "NORMAL": 26,
            "POSITION": 25,
            "TEXCOORD_0": 27,
            "TEXCOORD_1": 28
          },
          "indices": 29,
          "material": 0,
          "mode": 4
        }
      ]
    },
    {
      "name": "model_tex_u1_v1_0",
      "primitives": [
        {
          "attributes": {
            "NORMAL": 31,
            "POSITION": 30,
            "TEXCOORD_0": 32,
            "TEXCOORD_1": 33
          },
          "indices": 34,
          "material": 0,
          "mode": 4
        }
      ]
    },
    {
      "name": "model_tex_u1_v1_0",
      "primitives": [
        {
          "attributes": {
            "NORMAL": 36,
            "POSITION": 35,
            "TEXCOORD_0": 37,
            "TEXCOORD_1": 38
          },
          "indices": 39,
          "material": 0,
          "mode": 4
        }
      ]
    },
    {
      "name": "model_tex_u1_v1_0",
      "primitives": [
        {
          "attributes": {
            "NORMAL": 41,
            "POSITION": 40,
            "TEXCOORD_0": 42,
            "TEXCOORD_1": 43
          },
          "indices": 44,
          "material": 0,
          "mode": 4
        }
      ]
    },
    {
      "name": "model_tex_u1_v1_0",
      "primitives": [
        {
          "attributes": {
            "NORMAL": 46,
            "POSITION": 45,
            "TEXCOORD_0": 47,
            "TEXCOORD_1": 48
          },
          "indices": 49,
          "material": 0,
          "mode": 4
        }
      ]
    },
    {
      "name": "model_tex_u1_v1_0",
      "primitives": [
        {
          "attributes": {
            "NORMAL": 51,
            "POSITION": 50,
            "TEXCOORD_0": 52,
            "TEXCOORD_1": 53
          },
          "indices": 54,
          "material": 0,
          "mode": 4
        }
      ]
    },
    {
      "name": "model_tex_u1_v1_0",
      "primitives": [
        {
          "attributes": {
            "NORMAL": 56,
            "POSITION": 55,
            "TEXCOORD_0": 57,
            "TEXCOORD_1": 58
          },
          "indices": 59,
          "material": 0,
          "mode": 4
        }
      ]
    }
  ],
  "nodes": [
    {
      "children": [
        1
      ],
      "matrix": [
        1.0,
        0.0,
        0.0,
        0.0,
        0.0,
        2.220446049250313e-16,
        -1.0,
        0.0,
        0.0,
        1.0,
        2.220446049250313e-16,
        0.0,
        0.0,
        0.0,
        0.0,
        1.0
      ],
      "name": "Sketchfab_model"
    },
    {
      "children": [
        2
      ],
      "matrix": [
        1.0,
        0.0,
        0.0,
        0.0,
        0.0,
        -1.0,
        0.0,
        0.0,
        0.0,
        0.0,
        -1.0,
        0.0,
        0.0,
        0.0,
        0.0,
        1.0
      ],
      "name": "model.fbx"
    },
    {
      "children": [
        3
      ],
      "name": "RootNode"
    },
    {
      "children": [
        4,
        5,
        6,
        7,
        8,
        9,
        10,
        11,
        12,
        13,
        14,
        15
      ],
      "name": "model"
    },
    {
      "mesh": 0,
      "name": "model_tex_u1_v1_0"
    },
    {
      "mesh": 1,
      "name": "model_tex_u1_v1_0"
    },
    {
      "mesh": 2,
      "name": "model_tex_u1_v1_0"
    },
    {
      "mesh": 3,
      "name": "model_tex_u1_v1_0"
    },
    {
      "mesh": 4,
      "name": "model_tex_u1_v1_0"
    },
    {
      "mesh": 5,
      "name": "model_tex_u1_v1_0"
    },
    {
      "mesh": 6,
      "name": "model_tex_u1_v1_0"
    },
    {
      "mesh": 7,
      "name": "model_tex_u1_v1_0"
    },
    {
      "mesh": 8,
      "name": "model_tex_u1_v1_0"
    },
    {
      "mesh": 9,
      "name": "model_tex_u1_v1_0"
    },
    {
      "mesh": 10,
      "name": "model_tex_u1_v1_0"
    },
    {
      "mesh": 11,
      "name": "model_tex_u1_v1_0"
    }
  ],
  "samplers": [
    {
      "magFilter": 9729,
      "minFilter": 9987,
      "wrapS": 10497,
      "wrapT": 10497
    }
  ],
  "scene": 0,
  "scenes": [
    {
      "name": "Sketchfab_Scene",
      "nodes": [
        0
      ]
    }
  ],
  "textures": [
    {
      "sampler": 0,
      "source": 0
    }
  ]
}
